<?xml version="1.0" encoding="UTF-8"?>
<svg version="1.1" xmlns="http://www.w3.org/2000/svg" width="1024" height="1024">
<path d="M0 0 C337.92 0 675.84 0 1024 0 C1024 337.92 1024 675.84 1024 1024 C686.08 1024 348.16 1024 0 1024 C0 686.08 0 348.16 0 0 Z " fill="#030616" transform="translate(0,0)"/>
<path d="M0 0 C9.99697021 7.40764974 18.95897799 16.02105588 27.74023438 24.8046875 C29.5653457 26.62538205 31.4059783 28.42938151 33.24755859 30.23339844 C39.91933537 36.84148887 45.64181358 43.30719339 50.18115234 51.61621094 C50.95978638 53.03788574 50.95978638 53.03788574 51.75415039 54.48828125 C56.4816327 63.59306199 57.31512312 74.93934869 54.56738281 84.82421875 C51.78279938 92.51158821 47.52249456 98.41644841 42.00024414 104.3581543 C41.47739303 104.92216352 40.95454191 105.48617273 40.41584682 106.06727314 C33.49165276 113.48648753 26.31968726 120.66217171 19.15380859 127.84667969 C18.40876005 128.59455561 17.66371151 129.34243153 16.89608574 130.11297035 C12.96098257 134.06293079 9.02311808 138.01011222 5.08276367 141.95483398 C1.05079738 145.992298 -2.97178657 150.0389768 -6.99228573 154.08785534 C-10.12303534 157.23735144 -13.26059254 160.38000026 -16.39996529 163.52089882 C-17.8849903 165.0089184 -19.3675536 166.49939956 -20.84742546 167.99254417 C-45.64135645 192.99312357 -77.30214753 214.67252093 -113.81884766 215.61621094 C-114.5797168 215.6366748 -115.34058594 215.65713867 -116.12451172 215.67822266 C-154.51961542 216.56924827 -187.86572037 204.26616213 -215.81884766 177.61621094 C-216.50970459 176.92333984 -217.20056152 176.23046875 -217.91235352 175.51660156 C-220.83278935 172.59120266 -223.79068708 169.70480396 -226.74728394 166.81602478 C-229.90863943 163.72141563 -233.05693862 160.6136672 -236.20458984 157.50512695 C-237.87044947 155.86459179 -239.54074209 154.22854647 -241.21533203 152.59692383 C-243.63397404 150.23865317 -246.03634793 147.86484061 -248.43603516 145.48730469 C-249.19109344 144.75805283 -249.94615173 144.02880096 -250.72409058 143.27745056 C-251.75108566 142.25102196 -251.75108566 142.25102196 -252.79882812 141.20385742 C-253.40773895 140.60604965 -254.01664978 140.00824188 -254.64401245 139.39231873 C-255.81884766 137.61621094 -255.81884766 137.61621094 -255.64651489 135.55140686 C-254.33812751 132.49222338 -252.12665879 130.60881407 -249.75634766 128.30371094 C-249.0146936 127.57958008 -249.0146936 127.57958008 -248.25805664 126.84082031 C-243.03400852 121.77814906 -237.67462527 116.94047748 -231.81884766 112.61621094 C-230.06563496 114.34221861 -228.31626695 116.07185391 -226.56884766 117.80371094 C-225.83214844 118.5278418 -225.83214844 118.5278418 -225.08056641 119.26660156 C-222.09260148 122.23464672 -219.45134661 125.32281034 -216.81884766 128.61621094 C-215.72510448 129.61006889 -214.60155378 130.57265538 -213.44384766 131.49121094 C-210.33585527 134.07456358 -207.78539408 136.86656327 -205.20556641 139.96777344 C-201.28562799 144.62753122 -196.67444358 148.55921168 -192.10009766 152.55371094 C-190.48047556 154.01802681 -188.9102885 155.53785334 -187.37744141 157.09277344 C-169.89207347 174.33788441 -146.23902921 182.10242939 -122.06860352 182.11816406 C-96.05846489 181.57418271 -73.3451385 169.15669915 -54.81884766 151.61621094 C-54.27099609 151.03355469 -53.72314453 150.45089844 -53.15869141 149.85058594 C-51.81884766 148.61621094 -51.81884766 148.61621094 -49.81884766 148.61621094 C-49.55072266 147.97683594 -49.28259766 147.33746094 -49.00634766 146.67871094 C-47.81884766 144.61621094 -47.81884766 144.61621094 -44.81884766 143.61621094 C-44.48884766 142.62621094 -44.15884766 141.63621094 -43.81884766 140.61621094 C-42.28993225 139.10482788 -42.28993225 139.10482788 -40.32299805 137.48486328 C-35.56923567 133.44828241 -31.16365894 129.12277581 -26.75244141 124.71777344 C-25.91471695 123.88337738 -25.07699249 123.04898132 -24.21388245 122.18930054 C-22.45369927 120.43415141 -20.69484306 118.67767058 -18.93725586 116.91992188 C-16.26583266 114.25068817 -13.58650598 111.58956379 -10.90673828 108.92871094 C-9.18814915 107.21305597 -7.4700343 105.49692576 -5.75244141 103.78027344 C-4.96058945 102.99560699 -4.16873749 102.21094055 -3.35289001 101.40249634 C10.0087229 88.07897845 10.0087229 88.07897845 15.55615234 70.61621094 C15.27512466 67.57126766 15.27512466 67.57126766 14.18115234 64.61621094 C14.84115234 63.95621094 15.50115234 63.29621094 16.18115234 62.61621094 C17.17115234 63.27621094 18.16115234 63.93621094 19.18115234 64.61621094 C17.94365234 63.44058594 17.94365234 63.44058594 16.68115234 62.24121094 C14.18115234 59.61621094 14.18115234 59.61621094 14.18115234 57.61621094 C13.19115234 57.28621094 12.20115234 56.95621094 11.18115234 56.61621094 C9.62280273 55.04980469 9.62280273 55.04980469 7.96630859 53.05371094 C-5.58607057 37.11057131 -21.0573574 21.89040357 -42.99121094 19.36621094 C-57.64121543 18.34329987 -68.75538984 21.76814487 -79.97923279 31.4868927 C-85.86207469 36.76529365 -91.53819278 42.20102546 -97.10791016 47.80761719 C-97.93721039 48.63833237 -98.76651062 49.46904755 -99.62094116 50.32493591 C-102.23096529 52.94049178 -104.83746314 55.55952872 -107.44384766 58.17871094 C-109.22877032 59.96865744 -111.01392457 61.75837304 -112.79931641 63.54785156 C-117.14183656 67.90130999 -121.48147879 72.25762056 -125.81884766 76.61621094 C-133.21633355 70.3530984 -133.21633355 70.3530984 -136.20556641 67.29199219 C-136.75148438 66.73833984 -137.29740234 66.1846875 -137.85986328 65.61425781 C-138.40320313 65.05802734 -138.94654297 64.50179687 -139.50634766 63.92871094 C-144.36113573 58.93101363 -144.36113573 58.93101363 -149.81884766 54.61621094 C-148.31894504 51.12027048 -146.30751419 48.84637969 -143.63549805 46.15820312 C-142.77021988 45.28339294 -141.90494171 44.40858276 -141.01344299 43.50726318 C-140.06479266 42.55887453 -139.11580403 41.61082417 -138.16650391 40.66308594 C-137.18658481 39.67927427 -136.20688775 38.69524139 -135.22740173 37.71099854 C-133.17038012 35.64651726 -131.10952956 33.58595054 -129.04614258 31.52783203 C-126.4289208 28.91635951 -123.82314134 26.29380417 -121.22048283 23.66782761 C-119.19661592 21.62906278 -117.16568594 19.59744398 -115.13281059 17.5676651 C-113.70905103 16.14315547 -112.29180527 14.71214474 -110.87477112 13.28094482 C-102.83176769 5.29400173 -94.2027518 -1.70397835 -83.94384766 -6.63378906 C-83.2609668 -6.96314453 -82.57808594 -7.2925 -81.87451172 -7.63183594 C-55.83642183 -19.89219528 -23.77601864 -16.14475477 0 0 Z " fill="#0059CE" transform="translate(606.81884765625,397.3837890625)"/>
<path d="M0 0 C1.22249959 0.565443 2.44515862 1.13054139 3.66796875 1.6953125 C14.29326963 6.70818069 23.09140792 12.89828539 31.67578125 20.88671875 C33.22880238 22.29879343 34.83259601 23.65689858 36.48046875 24.95703125 C39.18455244 27.14964485 41.55222823 29.52470744 44 32 C44.79728516 32.79728516 45.59457031 33.59457031 46.41601562 34.41601562 C65 53 65 53 67.63085938 55.63867188 C69.33889507 57.34107513 71.06897339 59.02146346 72.8125 60.6875 C75 63 75 63 75 65 C75.66 65 76.32 65 77 65 C75.56755544 68.26531834 73.80730732 70.44978295 71.296875 72.96875 C70.56339844 73.70480469 69.82992188 74.44085938 69.07421875 75.19921875 C68.30722656 75.95847656 67.54023437 76.71773438 66.75 77.5 C65.99847656 78.25925781 65.24695313 79.01851563 64.47265625 79.80078125 C63.73402344 80.53683594 62.99539063 81.27289063 62.234375 82.03125 C61.56631836 82.69705078 60.89826172 83.36285156 60.20996094 84.04882812 C57.6357699 86.32157832 54.88861362 88.14988474 52 90 C51.42974091 89.41863785 50.85948181 88.8372757 50.27194214 88.23829651 C44.84427595 82.7096359 39.40408962 77.19372725 33.95010185 71.69104099 C31.14787067 68.86293018 28.35039153 66.03045809 25.56396484 63.18676758 C22.86498384 60.43268292 20.15327723 57.69169503 17.43301773 54.95863152 C16.40736397 53.9238762 15.38604898 52.88479792 14.36962509 51.84097481 C-2.55202236 34.48237576 -22.31132312 25.18770765 -46.75 24.75 C-52.47349545 24.84363592 -57.53010562 25.36649912 -63 27 C-63.98226562 27.25652344 -64.96453125 27.51304687 -65.9765625 27.77734375 C-78.67153772 31.30709223 -89.0995875 37.38878979 -99 46 C-99.78246094 46.66128906 -100.56492187 47.32257813 -101.37109375 48.00390625 C-105.74464593 51.77268393 -109.58851317 55.71610007 -113.3125 60.12109375 C-115.43677638 62.48631815 -117.7564434 64.48629942 -120.2265625 66.48046875 C-122.07030696 68.06024099 -123.76356128 69.75455069 -125.4750061 71.47499084 C-127.16549814 73.1654998 -128.8702919 74.84067405 -130.57763672 76.51416016 C-134.23459126 80.09933176 -137.87882742 83.69715454 -141.51904297 87.29931641 C-143.08250109 88.84268449 -144.64953385 90.38244025 -146.22021484 91.91845703 C-165.02265805 110.13459733 -165.02265805 110.13459733 -171.5 134.75 C-171.50460247 142.60917586 -169.18673112 148.84733706 -166 156 C-165.23475702 158.32264703 -164.60619121 160.63034345 -164 163 C-171.76719053 158.42398077 -178.09730842 152.56330705 -184.56396484 146.35986328 C-185.74320054 145.243178 -186.95531499 144.16131234 -188.17578125 143.08984375 C-195.08740692 136.85252302 -199.61356297 127.7395401 -200.23828125 118.4609375 C-200.61490266 104.73106939 -197.39771227 96.27226278 -188 86 C-185.32053036 83.22869716 -182.5985541 80.50179638 -179.83227539 77.81713867 C-177.07592373 75.13460649 -174.46108195 72.41099577 -171.96875 69.48046875 C-166.92584998 63.64344968 -161.40904997 58.26018055 -155.94848633 52.81811523 C-154.06671726 50.94170525 -152.19035262 49.06001031 -150.31445312 47.17773438 C-144.92272995 41.78350959 -139.53990711 36.46623155 -133.72485352 31.52416992 C-131.24862664 29.33604757 -129.00249754 26.95216529 -126.72680664 24.55883789 C-94.50309732 -9.14217616 -42.65118327 -20.5630849 0 0 Z " fill="#01BDF1" transform="translate(596,315)"/>
<path d="M0 0 C0.20625 1.258125 0.4125 2.51625 0.625 3.8125 C4.17550759 19.4347334 17.02504528 30.21451555 27.875 41.125 C28.79152344 42.06214844 29.70804687 42.99929688 30.65234375 43.96484375 C42.28146363 55.65938765 55.04649735 64.41790817 71 69 C72.09183594 69.350625 73.18367188 69.70125 74.30859375 70.0625 C91.67208122 74.4722746 108.98955768 68.44958674 124 60 C134.86071784 52.68349057 144.18976694 42.96126398 153.3828125 33.71484375 C154.33236927 32.76341519 155.28215204 31.81221213 156.23214722 30.86122131 C158.69694392 28.39265924 161.15871942 25.92110678 163.61981201 23.44885254 C166.1457145 20.91260513 168.67455383 18.37928945 171.203125 15.84570312 C176.13824519 10.89995151 181.07017017 5.95102482 186 1 C189.21611185 2.51494924 191.00400439 3.91271416 193.25 6.6875 C196.29209813 10.29101538 199.5414713 13.34427332 203.1328125 16.390625 C205.55462149 18.47804195 207.77514043 20.70561356 210 23 C208.49634599 26.51683356 206.46566858 28.78223642 203.76904297 31.47387695 C202.89408173 32.35191483 202.01912048 33.2299527 201.11764526 34.13459778 C200.15933607 35.08600364 199.20084549 36.03722684 198.2421875 36.98828125 C197.25493461 37.97434043 196.26805286 38.96077133 195.28152466 39.94755554 C193.21159502 42.01592197 191.13835479 44.0808911 189.0625 46.14331055 C186.42163291 48.76728855 183.78729446 51.39769916 181.15524101 54.03051472 C179.11529634 56.07018517 177.07273752 58.10722111 175.02933121 60.14342308 C174.0584707 61.11113294 173.08818695 62.07942184 172.11852646 63.04833412 C167.12571379 68.03308697 162.10281886 72.91909678 156.73294067 77.49821472 C154.89327334 79.09249049 153.13554827 80.75666017 151.375 82.4375 C145.88036634 87.25887815 139.40275355 90.55757839 133 94 C132.25492188 94.41378906 131.50984375 94.82757812 130.7421875 95.25390625 C125.12317734 98.25149535 119.10667946 100.2383155 113 102 C112.3824585 102.18095215 111.76491699 102.3619043 111.12866211 102.54833984 C103.96423158 104.41137532 96.80345194 104.38418677 89.4375 104.375 C88.77214233 104.37512085 88.10678467 104.3752417 87.42126465 104.37536621 C77.05399965 104.34852903 67.79342446 103.5389037 58 100 C57.12730469 99.71125 56.25460937 99.4225 55.35546875 99.125 C35.1765189 91.8227629 19.6816549 78.28915561 4.57867432 63.53967285 C2.75388706 61.75996733 0.92439231 59.98515369 -0.90478516 58.20996094 C-4.58141275 54.63702508 -8.24089342 51.04713216 -11.89144897 47.4475708 C-13.38015235 45.98284891 -14.87285786 44.52218358 -16.36953735 43.06561279 C-18.4904142 40.99849637 -20.59453587 38.91564046 -22.6953125 36.828125 C-23.34651566 36.19953583 -23.99771881 35.57094666 -24.6686554 34.92330933 C-25.25511337 34.3340567 -25.84157135 33.74480408 -26.44580078 33.13769531 C-26.96522247 32.62636047 -27.48464417 32.11502563 -28.01980591 31.5881958 C-29 30 -29 30 -28.81391907 27.98144531 C-27.44992281 24.66086456 -24.8041981 22.39928676 -22.28515625 19.921875 C-21.71421738 19.35043762 -21.1432785 18.77900024 -20.55503845 18.19024658 C-19.34895836 16.98650364 -18.13919193 15.78644444 -16.92602539 14.58984375 C-15.06410912 12.75158867 -13.21593797 10.90030578 -11.36914062 9.046875 C-10.19610382 7.87941269 -9.02230157 6.71271888 -7.84765625 5.546875 C-7.29239761 4.99070496 -6.73713898 4.43453491 -6.16505432 3.86151123 C-2.23103346 0 -2.23103346 0 0 0 Z " fill="#0074DF" transform="translate(380,433)"/>
<path d="M0 0 C9.99697021 7.40764974 18.95897799 16.02105588 27.74023438 24.8046875 C29.5653457 26.62538205 31.4059783 28.42938151 33.24755859 30.23339844 C39.91933537 36.84148887 45.64181358 43.30719339 50.18115234 51.61621094 C50.7002417 52.56399414 51.21933105 53.51177734 51.75415039 54.48828125 C56.4816327 63.59306199 57.31512312 74.93934869 54.56738281 84.82421875 C50.64160064 95.66208325 43.2669929 103.6798007 35.18115234 111.61621094 C33.95935593 112.84625159 32.73934587 114.07806882 31.52099609 115.31152344 C28.42821226 118.43424951 25.31157106 121.53123378 22.18115234 124.61621094 C21.85115234 123.95621094 21.52115234 123.29621094 21.18115234 122.61621094 C22.05052909 120.18907722 22.9791114 117.85657004 23.99365234 115.49121094 C29.92186718 101.06305712 31.22368611 88.4901402 25.18115234 73.61621094 C24.18708984 71.94599613 23.18835791 70.27853302 22.18115234 68.61621094 C22.18115234 67.95621094 22.18115234 67.29621094 22.18115234 66.61621094 C21.52115234 66.61621094 20.86115234 66.61621094 20.18115234 66.61621094 C18.67333984 65.15527344 18.67333984 65.15527344 17.05615234 63.24121094 C16.51732422 62.61472656 15.97849609 61.98824219 15.42333984 61.34277344 C14.18115234 59.61621094 14.18115234 59.61621094 14.18115234 57.61621094 C13.19115234 57.28621094 12.20115234 56.95621094 11.18115234 56.61621094 C9.62280273 55.04980469 9.62280273 55.04980469 7.96630859 53.05371094 C-5.58607057 37.11057131 -21.0573574 21.89040357 -42.99121094 19.36621094 C-57.64121543 18.34329987 -68.75538984 21.76814487 -79.97923279 31.4868927 C-85.86207469 36.76529365 -91.53819278 42.20102546 -97.10791016 47.80761719 C-97.93721039 48.63833237 -98.76651062 49.46904755 -99.62094116 50.32493591 C-102.23096529 52.94049178 -104.83746314 55.55952872 -107.44384766 58.17871094 C-109.22877032 59.96865744 -111.01392457 61.75837304 -112.79931641 63.54785156 C-117.14183656 67.90130999 -121.48147879 72.25762056 -125.81884766 76.61621094 C-133.21633355 70.3530984 -133.21633355 70.3530984 -136.20556641 67.29199219 C-137.02444336 66.46151367 -137.02444336 66.46151367 -137.85986328 65.61425781 C-138.40320313 65.05802734 -138.94654297 64.50179687 -139.50634766 63.92871094 C-144.36113573 58.93101363 -144.36113573 58.93101363 -149.81884766 54.61621094 C-148.31894504 51.12027048 -146.30751419 48.84637969 -143.63549805 46.15820312 C-142.77021988 45.28339294 -141.90494171 44.40858276 -141.01344299 43.50726318 C-140.06479266 42.55887453 -139.11580403 41.61082417 -138.16650391 40.66308594 C-137.18658481 39.67927427 -136.20688775 38.69524139 -135.22740173 37.71099854 C-133.17038012 35.64651726 -131.10952956 33.58595054 -129.04614258 31.52783203 C-126.4289208 28.91635951 -123.82314134 26.29380417 -121.22048283 23.66782761 C-119.19661592 21.62906278 -117.16568594 19.59744398 -115.13281059 17.5676651 C-113.70905103 16.14315547 -112.29180527 14.71214474 -110.87477112 13.28094482 C-102.83176769 5.29400173 -94.2027518 -1.70397835 -83.94384766 -6.63378906 C-83.2609668 -6.96314453 -82.57808594 -7.2925 -81.87451172 -7.63183594 C-55.83642183 -19.89219528 -23.77601864 -16.14475477 0 0 Z " fill="#008DEA" transform="translate(606.81884765625,397.3837890625)"/>
<path d="M0 0 C0 3 0 3 -1.89819336 5.25895691 C-2.78643799 6.1405397 -3.67468262 7.0221225 -4.58984375 7.93041992 C-5.07752228 8.41853653 -5.56520081 8.90665314 -6.06765747 9.40956116 C-7.68393004 11.02374105 -9.31057485 12.62703192 -10.9375 14.23046875 C-12.05916419 15.3465387 -13.18016855 16.46327215 -14.30053711 17.5806427 C-17.25315553 20.52179888 -20.2146718 23.45383593 -23.17810059 26.38409424 C-26.19965665 29.37497923 -29.21275304 32.37435962 -32.2265625 35.37304688 C-38.14277266 41.25706855 -44.06840515 47.13148794 -50 53 C-50.66 52.67 -51.32 52.34 -52 52 C-44.71043901 43.90608629 -37.21788263 36.05836244 -29.5012207 28.37084961 C-27.79976222 26.67480274 -26.10378737 24.97340179 -24.40820312 23.27148438 C-19.27024293 18.13067293 -14.11714825 13.08313633 -8.5847168 8.36206055 C-6.6307356 6.68261808 -4.80257142 4.90262499 -3 3.0625 C-2.4225 2.47597656 -1.845 1.88945312 -1.25 1.28515625 C-0.63125 0.64900391 -0.63125 0.64900391 0 0 Z " fill="#05B3DE" transform="translate(471,338)"/>
<path d="M0 0 C0 3 0 3 -1.44262695 4.8033905 C-2.45522583 5.80599663 -2.45522583 5.80599663 -3.48828125 6.82885742 C-4.62946411 7.96970039 -4.62946411 7.96970039 -5.79370117 9.1335907 C-6.62490479 9.94931046 -7.4561084 10.76503021 -8.3125 11.60546875 C-9.15594971 12.44467361 -9.99939941 13.28387848 -10.8684082 14.14851379 C-13.57200158 16.8352738 -16.28582468 19.51143435 -19 22.1875 C-20.8314109 24.00387017 -22.66214909 25.8209189 -24.4921875 27.63867188 C-28.98700658 32.1003598 -33.49027501 36.55338177 -38 41 C-38.66 40.67 -39.32 40.34 -40 40 C-38.71937515 38.2925002 -37.38232443 36.62626404 -36 35 C-35.34 35 -34.68 35 -34 35 C-33.67 34.01 -33.34 33.02 -33 32 C-31.609375 30.63061523 -31.609375 30.63061523 -29.75 29.12109375 C-23.47932791 23.8008204 -17.78850612 17.89467119 -12 12.0625 C-10.83226626 10.88973991 -9.66429926 9.71721202 -8.49609375 8.54492188 C-5.66136766 5.69928311 -2.82981176 2.85052547 0 0 Z " fill="#0260C5" transform="translate(596,506)"/>
<path d="M0 0 C2.31 1.98 4.62 3.96 7 6 C6.01 6 5.02 6 4 6 C3.34 5.34 2.68 4.68 2 4 C-1.94340731 4.23322348 -3.83813761 6.51704932 -6.4765625 9.25390625 C-7.311875 10.10791016 -8.1471875 10.96191406 -9.0078125 11.84179688 C-9.87148438 12.73962891 -10.73515625 13.63746094 -11.625 14.5625 C-13.34183302 16.33901583 -15.06296376 18.11139183 -16.7890625 19.87890625 C-17.54912598 20.6685376 -18.30918945 21.45816895 -19.09228516 22.27172852 C-21 24 -21 24 -23 24 C-19.66065167 16.01859053 -11.15754292 9.96684753 -4.69140625 4.47265625 C-3.06189291 3.05388828 -1.52777883 1.52777883 0 0 Z " fill="#0468CB" transform="translate(374,510)"/>
<path d="M0 0 C0.66 0.66 1.32 1.32 2 2 C-5.59 9.59 -13.18 17.18 -21 25 C-21.66 24.67 -22.32 24.34 -23 24 C-15.56910426 15.7499504 -7.9129408 7.78865378 0 0 Z " fill="#0499D2" transform="translate(442,366)"/>
<path d="M0 0 C2.96052484 3.36423277 3.92289822 6.69159287 5 11 C2.03 9.02 -0.94 7.04 -4 5 C-3.34 4.67 -2.68 4.34 -2 4 C-1.34 4.33 -0.68 4.66 0 5 C0 3.35 0 1.7 0 0 Z " fill="#006ECA" transform="translate(427,467)"/>
<path d="M0 0 C0.66 0 1.32 0 2 0 C3.5078125 1.53125 3.5078125 1.53125 5.125 3.5 C5.66382813 4.1496875 6.20265625 4.799375 6.7578125 5.46875 C7.16773438 5.9740625 7.57765625 6.479375 8 7 C7.67 7.66 7.34 8.32 7 9 C6.01 8.01 5.02 7.02 4 6 C3.01 6.495 3.01 6.495 2 7 C0.5393715 4.35261084 0 3.10551666 0 0 Z " fill="#042C60" transform="translate(619,455)"/>
<path d="M0 0 C0.99 1.32 1.98 2.64 3 4 C0.03 6.475 0.03 6.475 -3 9 C-2.01 6.03 -1.02 3.06 0 0 Z " fill="#0072E1" transform="translate(631,513)"/>
</svg>
